{"glyphs":{"0":{"ha":853,"x_min":58,"x_max":794,"o":"m 794 407 q 767 238 794 315 q 690 105 739 161 q 573 17 640 49 q 426 -14 506 -14 q 280 17 347 -14 q 163 105 213 49 q 86 238 114 161 q 58 407 58 315 q 86 576 58 499 q 163 709 114 653 q 280 797 213 765 q 426 829 347 829 q 573 797 506 829 q 690 709 640 765 q 767 576 739 653 q 794 407 794 499 m 528 407 q 499 538 528 488 q 426 588 471 588 q 351 538 379 588 q 322 407 322 488 q 351 277 322 326 q 426 228 379 228 q 499 277 471 228 q 528 407 528 326 z "},"1":{"ha":760,"x_min":57,"x_max":726,"o":"m 726 236 l 726 0 l 83 0 l 83 236 l 281 236 l 281 513 q 242 480 268 496 q 183 450 215 464 q 117 428 150 436 q 57 419 83 419 l 57 661 q 111 676 76 661 q 181 710 146 690 q 244 753 215 731 q 281 793 272 776 l 550 793 l 550 236 l 726 236 z "},"2":{"ha":833,"x_min":44,"x_max":776,"o":"m 44 0 q 56 122 44 69 q 92 217 67 175 q 156 293 117 260 q 254 358 196 326 q 373 423 329 399 q 439 463 417 447 q 467 488 461 478 q 474 511 474 499 q 451 563 474 546 q 390 579 429 579 q 303 556 344 579 q 218 479 263 532 l 51 675 q 119 728 78 704 q 212 770 161 753 q 319 797 263 788 q 436 807 376 807 q 678 741 596 807 q 761 557 761 675 q 750 481 761 514 q 720 420 739 447 q 675 371 701 393 q 619 329 649 349 q 547 284 585 306 q 471 236 508 263 l 776 236 l 776 0 l 44 0 z "},"3":{"ha":804,"x_min":28,"x_max":761,"o":"m 567 329 q 645 300 610 322 q 706 244 681 278 q 747 169 732 211 q 761 79 761 126 q 733 -39 761 14 q 655 -128 706 -92 q 531 -185 604 -165 q 365 -204 457 -204 q 176 -177 258 -204 q 28 -93 94 -150 l 163 99 q 248 52 203 67 q 351 38 293 38 q 455 59 422 38 q 488 128 488 81 q 446 203 488 181 q 310 226 404 226 l 267 226 l 267 410 l 315 410 q 422 435 382 410 q 463 506 463 461 q 439 558 463 539 q 372 576 415 576 q 281 552 324 576 q 207 479 239 528 l 40 675 q 103 726 65 703 q 190 765 142 749 q 292 791 238 782 q 403 800 346 800 q 543 783 479 800 q 651 733 607 765 q 721 656 696 701 q 746 556 746 611 q 732 476 746 514 q 694 408 718 439 q 638 357 671 378 q 567 329 606 336 z "},"4":{"ha":811,"x_min":28,"x_max":771,"o":"m 385 -176 l 385 -4 l 28 -4 l 28 232 l 468 793 l 649 793 l 649 232 l 771 232 l 771 -4 l 649 -4 l 649 -176 l 385 -176 m 288 232 l 415 232 l 415 399 l 288 232 z "},"5":{"ha":775,"x_min":28,"x_max":739,"o":"m 411 453 q 543 429 483 453 q 647 363 603 406 q 715 262 690 321 q 739 132 739 203 q 711 -6 739 57 q 633 -112 683 -68 q 512 -182 582 -157 q 357 -207 442 -207 q 162 -167 249 -207 q 28 -51 75 -126 l 172 115 q 262 48 213 72 q 358 24 311 24 q 439 51 410 24 q 468 126 468 79 q 442 200 468 172 q 372 228 415 228 q 319 215 343 228 q 282 179 294 201 l 56 179 l 172 793 l 667 793 l 667 553 l 363 553 l 347 446 q 363 449 353 447 q 382 451 369 450 q 411 453 394 453 z "},"6":{"ha":844,"x_min":54,"x_max":794,"o":"m 794 333 q 767 197 794 260 q 689 87 739 133 q 572 13 639 40 q 425 -14 504 -14 q 151 114 247 -14 q 54 472 54 242 q 81 691 54 594 q 160 855 108 788 q 285 958 211 922 q 451 994 358 994 q 765 861 632 994 l 619 692 q 447 767 544 767 q 340 726 379 767 q 297 610 300 685 q 447 657 350 657 q 585 633 522 657 q 695 565 649 608 q 768 462 742 521 q 794 333 794 403 m 425 207 q 470 217 449 207 q 508 245 492 228 q 533 285 524 263 q 543 333 543 308 q 508 416 543 382 q 425 450 474 450 q 342 416 376 450 q 307 333 307 382 q 317 285 307 308 q 342 245 326 263 q 380 217 358 228 q 425 207 401 207 z "},"7":{"ha":826,"x_min":42,"x_max":833,"o":"m 418 571 l 42 571 l 42 811 l 833 811 l 351 -175 l 53 -175 l 418 571 z "},"8":{"ha":850,"x_min":53,"x_max":797,"o":"m 797 307 q 768 176 797 235 q 688 74 739 117 q 569 9 638 32 q 425 -14 501 -14 q 284 9 351 -14 q 165 75 217 32 q 83 179 114 118 q 53 315 53 240 q 64 385 53 353 q 92 443 75 417 q 131 490 110 469 q 172 526 151 511 q 106 597 132 550 q 81 693 81 644 q 113 819 81 764 q 196 911 146 874 q 307 967 246 949 q 425 986 368 986 q 543 967 482 986 q 655 913 604 949 q 738 822 706 876 q 771 696 771 767 q 744 599 771 647 q 678 526 718 550 q 720 490 699 511 q 758 440 742 468 q 786 379 775 413 q 797 307 797 346 m 529 322 q 499 393 529 368 q 425 418 469 418 q 350 392 379 418 q 321 322 321 367 q 351 254 321 282 q 425 226 381 226 q 500 254 471 226 q 529 322 529 282 m 349 688 q 373 632 349 650 q 425 614 397 614 q 478 632 453 614 q 503 688 503 650 q 481 735 503 715 q 425 754 460 754 q 369 735 390 754 q 349 688 349 715 z "},"9":{"ha":819,"x_min":38,"x_max":778,"o":"m 38 446 q 65 582 38 518 q 143 692 93 646 q 260 766 193 739 q 407 793 328 793 q 565 760 496 793 q 681 665 633 728 q 753 513 728 603 q 778 307 778 422 q 751 88 778 185 q 672 -76 724 -8 q 547 -179 621 -143 q 381 -215 474 -215 q 67 -82 200 -215 l 213 88 q 385 13 288 13 q 492 53 453 13 q 535 169 532 94 q 385 122 482 122 q 247 147 310 122 q 137 215 183 171 q 64 317 90 258 q 38 446 38 376 m 407 572 q 362 562 383 572 q 324 534 340 551 q 299 494 308 517 q 289 446 289 471 q 324 363 289 397 q 407 329 358 329 q 490 363 456 329 q 525 446 525 397 q 515 494 525 471 q 490 534 506 517 q 452 562 474 551 q 407 572 431 572 z "},"A":{"ha":932,"x_min":-11,"x_max":943,"o":"m -11 0 l 357 986 l 576 986 l 943 0 l 657 0 l 597 193 l 335 193 l 276 0 l -11 0 m 467 704 l 375 374 l 554 374 l 467 704 z "},"Æ":{"ha":1350,"x_min":-33,"x_max":1310,"o":"m 565 986 l 1297 986 l 1297 750 l 906 750 l 906 619 l 1222 619 l 1222 383 l 906 383 l 906 236 l 1310 236 l 1310 0 l 636 0 l 636 193 l 357 193 l 253 0 l -33 0 l 565 986 m 615 429 l 615 688 l 471 429 l 615 429 z "},"Ǽ":{"ha":1350,"x_min":-33,"x_max":1310,"o":"m 565 986 l 1297 986 l 1297 750 l 906 750 l 906 619 l 1222 619 l 1222 383 l 906 383 l 906 236 l 1310 236 l 1310 0 l 636 0 l 636 193 l 357 193 l 253 0 l -33 0 l 565 986 m 615 429 l 615 688 l 471 429 l 615 429 m 951 1028 l 785 1072 l 854 1269 l 1089 1269 l 951 1028 z "},"´":{"ha":394,"x_min":63,"x_max":367,"o":"m 229 772 l 63 817 l 132 1014 l 367 1014 l 229 772 z "},"Á":{"ha":932,"x_min":-11,"x_max":943,"o":"m -11 0 l 357 986 l 576 986 l 943 0 l 657 0 l 597 193 l 335 193 l 276 0 l -11 0 m 467 704 l 375 374 l 554 374 l 467 704 m 547 1028 l 381 1072 l 450 1269 l 685 1269 l 547 1028 z "},"Ă":{"ha":932,"x_min":-11,"x_max":943,"o":"m -11 0 l 357 986 l 576 986 l 943 0 l 657 0 l 597 193 l 335 193 l 276 0 l -11 0 m 467 704 l 375 374 l 554 374 l 467 704 m 467 1157 q 523 1189 499 1157 q 551 1269 547 1221 l 688 1269 q 672 1178 688 1219 q 626 1108 656 1138 q 556 1061 597 1078 q 467 1044 515 1044 q 377 1061 418 1044 q 307 1108 336 1078 q 262 1178 278 1138 q 246 1269 246 1219 l 382 1269 q 407 1190 382 1224 q 467 1157 432 1157 z "},"˘":{"ha":511,"x_min":35,"x_max":476,"o":"m 256 901 q 312 933 288 901 q 340 1014 336 965 l 476 1014 q 460 923 476 964 q 415 852 444 882 q 345 806 386 822 q 256 789 304 789 q 166 806 207 789 q 96 852 125 822 q 51 923 67 882 q 35 1014 35 964 l 171 1014 q 196 935 171 968 q 256 901 221 901 z "},"Â":{"ha":932,"x_min":-11,"x_max":943,"o":"m -11 0 l 357 986 l 576 986 l 943 0 l 657 0 l 597 193 l 335 193 l 276 0 l -11 0 m 467 704 l 375 374 l 554 374 l 467 704 m 215 1110 l 372 1269 l 561 1269 l 718 1110 l 585 1051 l 467 1139 l 349 1051 l 215 1110 z "},"ˆ":{"ha":558,"x_min":28,"x_max":531,"o":"m 28 854 l 185 1014 l 374 1014 l 531 854 l 397 796 l 279 883 l 161 796 l 28 854 z "},"Ä":{"ha":932,"x_min":-11,"x_max":943,"o":"m -11 0 l 357 986 l 576 986 l 943 0 l 657 0 l 597 193 l 335 193 l 276 0 l -11 0 m 467 704 l 375 374 l 554 374 l 467 704 m 199 1063 l 199 1257 l 415 1257 l 415 1063 l 199 1063 m 518 1063 l 518 1257 l 735 1257 l 735 1063 l 518 1063 z "},"¨":{"ha":786,"x_min":125,"x_max":661,"o":"m 125 806 l 125 1000 l 342 1000 l 342 806 l 125 806 m 444 806 l 444 1000 l 661 1000 l 661 806 l 444 806 z "},"À":{"ha":932,"x_min":-11,"x_max":943,"o":"m -11 0 l 357 986 l 576 986 l 943 0 l 657 0 l 597 193 l 335 193 l 276 0 l -11 0 m 467 704 l 375 374 l 554 374 l 467 704 m 249 1271 l 483 1271 l 553 1074 l 386 1029 l 249 1271 z "},"`":{"ha":394,"x_min":63,"x_max":367,"o":"m 63 1014 l 297 1014 l 367 817 l 200 772 l 63 1014 z "},"Ā":{"ha":932,"x_min":-11,"x_max":943,"o":"m -11 0 l 357 986 l 576 986 l 943 0 l 657 0 l 597 193 l 335 193 l 276 0 l -11 0 m 467 704 l 375 374 l 554 374 l 467 704 m 253 1099 l 253 1256 l 683 1256 l 683 1099 l 253 1099 z "},"¯":{"ha":608,"x_min":89,"x_max":519,"o":"m 89 843 l 89 1000 l 519 1000 l 519 843 l 89 843 z "},"Ą":{"ha":932,"x_min":-11,"x_max":943,"o":"m 878 -299 q 740 -247 785 -286 q 694 -160 694 -208 q 724 -78 694 -119 q 814 0 754 -36 l 657 0 l 597 193 l 335 193 l 276 0 l -11 0 l 357 986 l 576 986 l 943 0 q 858 -63 888 -32 q 829 -122 829 -94 q 853 -160 829 -146 q 926 -174 876 -174 l 878 -299 m 467 704 l 375 374 l 554 374 l 467 704 z "},"˛":{"ha":461,"x_min":103,"x_max":351,"o":"m 286 -297 q 148 -246 193 -285 q 103 -158 103 -207 q 149 -57 103 -108 q 288 35 196 -6 l 351 1 q 267 -62 296 -31 q 238 -121 238 -93 q 261 -158 238 -144 q 335 -172 285 -172 l 286 -297 l 286 -297 z "},"Å":{"ha":932,"x_min":-11,"x_max":943,"o":"m -11 0 l 357 986 l 576 986 l 943 0 l 657 0 l 597 193 l 335 193 l 276 0 l -11 0 m 467 704 l 375 374 l 554 374 l 467 704 m 304 1149 q 348 1240 304 1210 q 467 1269 392 1269 q 585 1240 542 1269 q 629 1149 629 1210 q 585 1058 629 1088 q 467 1028 542 1028 q 348 1058 392 1028 q 304 1149 304 1088 m 467 1194 q 427 1182 443 1194 q 411 1150 411 1169 q 427 1116 411 1129 q 467 1103 443 1103 q 506 1116 490 1103 q 522 1150 522 1129 q 506 1182 522 1169 q 467 1194 490 1194 z "},"˚":{"ha":381,"x_min":28,"x_max":353,"o":"m 28 893 q 72 984 28 954 q 190 1014 115 1014 q 309 984 265 1014 q 353 893 353 954 q 309 802 353 832 q 190 772 265 772 q 72 802 115 772 q 28 893 28 832 m 190 939 q 151 926 167 939 q 135 894 135 914 q 151 860 135 874 q 190 847 167 847 q 230 860 214 847 q 246 894 246 874 q 230 926 246 914 q 190 939 214 939 z "},"Ǻ":{"ha":932,"x_min":-11,"x_max":943,"o":"m 599 1110 q 629 1032 629 1079 q 590 946 629 978 l 943 0 l 657 0 l 597 193 l 335 193 l 276 0 l -11 0 l 342 946 q 304 1032 304 979 q 335 1112 304 1082 q 421 1150 367 1142 l 472 1275 l 707 1275 l 599 1110 m 467 704 l 375 374 l 554 374 l 467 704 m 467 1078 q 427 1065 443 1078 q 411 1033 411 1053 q 427 999 411 1013 q 467 986 443 986 q 506 999 490 986 q 522 1033 522 1013 q 506 1065 522 1053 q 467 1078 490 1078 z "},"Ã":{"ha":932,"x_min":-11,"x_max":943,"o":"m -11 0 l 357 986 l 576 986 l 943 0 l 657 0 l 597 193 l 335 193 l 276 0 l -11 0 m 467 704 l 375 374 l 554 374 l 467 704 m 556 1050 q 499 1060 524 1050 q 454 1083 475 1071 q 413 1106 433 1096 q 369 1117 393 1117 q 333 1107 346 1117 q 315 1085 321 1097 q 307 1062 308 1072 q 306 1050 306 1051 l 165 1050 q 176 1105 165 1068 q 210 1178 186 1142 q 269 1242 233 1214 q 358 1269 306 1269 q 417 1258 392 1269 q 463 1234 442 1247 q 503 1210 483 1221 q 546 1199 522 1199 q 582 1209 568 1199 q 603 1233 596 1219 q 613 1257 611 1246 q 615 1269 615 1268 l 754 1269 q 743 1222 754 1257 q 708 1148 732 1186 q 647 1080 685 1110 q 556 1050 610 1050 z "},"˜":{"ha":644,"x_min":28,"x_max":617,"o":"m 418 794 q 362 805 386 794 q 317 828 338 815 q 276 851 296 840 q 232 861 256 861 q 196 851 208 861 q 177 829 183 842 q 169 806 171 817 q 168 794 168 796 l 28 794 q 38 849 28 813 q 72 922 49 886 q 132 986 96 958 q 221 1014 168 1014 q 279 1003 254 1014 q 325 978 304 992 q 365 954 346 965 q 408 943 385 943 q 444 953 431 943 q 466 977 458 964 q 476 1001 474 990 q 478 1014 478 1013 l 617 1014 q 606 966 617 1001 q 571 892 594 931 q 510 824 547 854 q 418 794 472 794 z "},"B":{"ha":957,"x_min":85,"x_max":924,"o":"m 924 253 q 896 138 924 186 q 819 60 868 90 q 706 15 771 29 q 569 0 642 0 l 85 0 l 85 986 l 657 986 q 750 964 708 986 q 821 906 792 942 q 866 826 850 871 q 882 733 882 781 q 847 601 882 664 q 740 506 811 538 q 874 419 825 481 q 924 253 924 357 m 649 308 q 629 369 649 344 q 579 393 610 393 l 356 393 l 356 228 l 569 228 q 626 249 603 228 q 649 308 649 269 m 356 756 l 356 604 l 540 604 q 591 619 568 604 q 614 681 614 635 q 594 738 614 721 q 549 756 575 756 l 356 756 z "},"C":{"ha":910,"x_min":31,"x_max":893,"o":"m 31 501 q 63 679 31 592 q 156 836 94 767 q 306 949 218 906 q 507 992 394 992 q 738 933 639 992 q 883 776 836 874 l 676 629 q 644 689 664 665 q 600 726 624 713 q 550 746 576 740 q 501 751 524 751 q 413 728 450 751 q 352 669 376 706 q 317 585 328 632 q 306 493 306 539 q 319 394 306 442 q 358 311 332 347 q 420 253 383 275 q 504 232 457 232 q 553 238 528 232 q 601 259 578 244 q 642 297 624 274 q 672 353 661 319 l 893 221 q 830 124 872 167 q 733 51 788 81 q 618 7 679 22 q 499 -8 557 -8 q 310 35 396 -8 q 162 151 224 79 q 65 315 100 224 q 31 501 31 407 z "},"\r":{"ha":0,"x_min":0,"x_max":0,"o":""},"Ć":{"ha":910,"x_min":31,"x_max":893,"o":"m 31 501 q 63 679 31 592 q 156 836 94 767 q 306 949 218 906 q 507 992 394 992 q 738 933 639 992 q 883 776 836 874 l 676 629 q 644 689 664 665 q 600 726 624 713 q 550 746 576 740 q 501 751 524 751 q 413 728 450 751 q 352 669 376 706 q 317 585 328 632 q 306 493 306 539 q 319 394 306 442 q 358 311 332 347 q 420 253 383 275 q 504 232 457 232 q 553 238 528 232 q 601 259 578 244 q 642 297 624 274 q 672 353 661 319 l 893 221 q 830 124 872 167 q 733 51 788 81 q 618 7 679 22 q 499 -8 557 -8 q 310 35 396 -8 q 162 151 224 79 q 65 315 100 224 q 31 501 31 407 m 588 1028 l 421 1072 l 490 1269 l 725 1269 l 588 1028 z "},"Č":{"ha":910,"x_min":31,"x_max":893,"o":"m 31 501 q 63 679 31 592 q 156 836 94 767 q 306 949 218 906 q 507 992 394 992 q 738 933 639 992 q 883 776 836 874 l 676 629 q 644 689 664 665 q 600 726 624 713 q 550 746 576 740 q 501 751 524 751 q 413 728 450 751 q 352 669 376 706 q 317 585 328 632 q 306 493 306 539 q 319 394 306 442 q 358 311 332 347 q 420 253 383 275 q 504 232 457 232 q 553 238 528 232 q 601 259 578 244 q 642 297 624 274 q 672 353 661 319 l 893 221 q 830 124 872 167 q 733 51 788 81 q 618 7 679 22 q 499 -8 557 -8 q 310 35 396 -8 q 162 151 224 79 q 65 315 100 224 q 31 501 31 407 m 389 1269 l 507 1182 l 625 1269 l 758 1211 l 601 1051 l 413 1051 l 256 1211 l 389 1269 z "},"ˇ":{"ha":558,"x_min":28,"x_max":531,"o":"m 161 1014 l 279 926 l 397 1014 l 531 956 l 374 796 l 185 796 l 28 956 l 161 1014 z "},"Ç":{"ha":911,"x_min":32,"x_max":894,"o":"m 386 -178 q 438 -197 401 -187 q 511 -206 474 -206 q 566 -196 543 -206 q 589 -162 589 -186 q 568 -130 589 -139 q 513 -121 547 -121 q 451 -126 483 -121 q 403 -133 418 -131 l 464 -6 q 289 48 368 1 q 152 165 210 94 q 63 323 94 235 q 32 501 32 411 q 64 679 32 592 q 158 836 96 767 q 308 949 219 906 q 508 992 396 992 q 739 933 640 992 q 885 776 838 874 l 678 629 q 645 689 665 665 q 601 726 625 713 q 551 746 578 740 q 503 751 525 751 q 415 728 451 751 q 353 669 378 706 q 318 585 329 632 q 307 493 307 539 q 320 394 307 442 q 359 311 333 347 q 422 253 385 275 q 506 232 458 232 q 554 238 529 232 q 602 259 579 244 q 644 297 625 274 q 674 353 663 319 l 894 221 q 842 135 876 174 q 765 69 808 97 q 670 23 721 42 q 568 -3 619 4 l 538 -47 q 555 -45 546 -46 q 575 -44 564 -44 q 624 -51 600 -44 q 665 -69 647 -57 q 694 -103 683 -82 q 706 -153 706 -124 q 655 -253 706 -211 q 494 -296 604 -296 q 405 -287 444 -296 q 338 -267 365 -278 l 386 -178 z "},"¸":{"ha":503,"x_min":28,"x_max":396,"o":"m 76 -178 q 128 -197 92 -187 q 201 -206 164 -206 q 256 -196 233 -206 q 279 -162 279 -186 q 258 -130 279 -139 q 203 -121 238 -121 q 141 -126 174 -121 q 93 -133 108 -131 l 182 50 l 278 24 l 228 -47 q 245 -45 236 -46 q 265 -44 254 -44 q 314 -51 290 -44 q 356 -69 338 -57 q 385 -103 374 -82 q 396 -153 396 -124 q 345 -253 396 -211 q 185 -296 294 -296 q 95 -287 135 -296 q 28 -267 56 -278 l 76 -178 z "},"Ĉ":{"ha":910,"x_min":31,"x_max":893,"o":"m 31 501 q 63 679 31 592 q 156 836 94 767 q 306 949 218 906 q 507 992 394 992 q 738 933 639 992 q 883 776 836 874 l 676 629 q 644 689 664 665 q 600 726 624 713 q 550 746 576 740 q 501 751 524 751 q 413 728 450 751 q 352 669 376 706 q 317 585 328 632 q 306 493 306 539 q 319 394 306 442 q 358 311 332 347 q 420 253 383 275 q 504 232 457 232 q 553 238 528 232 q 601 259 578 244 q 642 297 624 274 q 672 353 661 319 l 893 221 q 830 124 872 167 q 733 51 788 81 q 618 7 679 22 q 499 -8 557 -8 q 310 35 396 -8 q 162 151 224 79 q 65 315 100 224 q 31 501 31 407 m 256 1110 l 413 1269 l 601 1269 l 758 1110 l 625 1051 l 507 1139 l 389 1051 l 256 1110 z "},"Ċ":{"ha":910,"x_min":31,"x_max":893,"o":"m 31 501 q 63 679 31 592 q 156 836 94 767 q 306 949 218 906 q 507 992 394 992 q 738 933 639 992 q 883 776 836 874 l 676 629 q 644 689 664 665 q 600 726 624 713 q 550 746 576 740 q 501 751 524 751 q 413 728 450 751 q 352 669 376 706 q 317 585 328 632 q 306 493 306 539 q 319 394 306 442 q 358 311 332 347 q 420 253 383 275 q 504 232 457 232 q 553 238 528 232 q 601 259 578 244 q 642 297 624 274 q 672 353 661 319 l 893 221 q 830 124 872 167 q 733 51 788 81 q 618 7 679 22 q 499 -8 557 -8 q 310 35 396 -8 q 162 151 224 79 q 65 315 100 224 q 31 501 31 407 m 389 1061 l 389 1269 l 625 1269 l 625 1061 l 389 1061 z "},"˙":{"ha":375,"x_min":69,"x_max":306,"o":"m 69 806 l 69 1014 l 306 1014 l 306 806 l 69 806 z "},"D":{"ha":996,"x_min":85,"x_max":961,"o":"m 85 0 l 85 986 l 464 986 q 679 947 586 986 q 835 842 772 908 q 929 685 897 775 q 961 494 961 596 q 926 291 961 382 q 825 135 890 200 q 668 35 760 71 q 464 0 576 0 l 85 0 m 686 494 q 671 599 686 551 q 627 679 656 646 q 557 731 599 713 q 464 750 515 750 l 356 750 l 356 236 l 464 236 q 558 256 517 236 q 628 310 600 275 q 672 392 657 344 q 686 494 686 439 z "},"Ď":{"ha":996,"x_min":85,"x_max":961,"o":"m 85 0 l 85 986 l 464 986 q 679 947 586 986 q 835 842 772 908 q 929 685 897 775 q 961 494 961 596 q 926 291 961 382 q 825 135 890 200 q 668 35 760 71 q 464 0 576 0 l 85 0 m 686 494 q 671 599 686 551 q 627 679 656 646 q 557 731 599 713 q 464 750 515 750 l 356 750 l 356 236 l 464 236 q 558 256 517 236 q 628 310 600 275 q 672 392 657 344 q 686 494 686 439 m 322 1269 l 440 1182 l 558 1269 l 692 1211 l 535 1051 l 346 1051 l 189 1211 l 322 1269 z "},"Đ":{"ha":1001,"x_min":39,"x_max":967,"o":"m 90 0 l 90 399 l 39 399 l 39 593 l 90 593 l 90 986 l 469 986 q 685 947 592 986 q 840 842 778 908 q 935 685 903 775 q 967 494 967 596 q 931 291 967 382 q 831 135 896 200 q 674 35 765 71 q 469 0 582 0 l 90 0 m 692 494 q 676 599 692 551 q 633 679 661 646 q 563 731 604 713 q 469 750 521 750 l 361 750 l 361 593 l 519 593 l 519 399 l 361 399 l 361 236 l 469 236 q 564 256 522 236 q 634 310 606 275 q 677 392 663 344 q 692 494 692 439 z "},"E":{"ha":829,"x_min":85,"x_max":788,"o":"m 788 236 l 788 0 l 85 0 l 85 986 l 775 986 l 775 750 l 356 750 l 356 611 l 714 611 l 714 392 l 356 392 l 356 236 l 788 236 z "},"É":{"ha":829,"x_min":85,"x_max":788,"o":"m 788 236 l 788 0 l 85 0 l 85 986 l 775 986 l 775 750 l 356 750 l 356 611 l 714 611 l 714 392 l 356 392 l 356 236 l 788 236 m 519 1028 l 353 1072 l 422 1269 l 657 1269 l 519 1028 z "},"Ĕ":{"ha":829,"x_min":85,"x_max":788,"o":"m 788 236 l 788 0 l 85 0 l 85 986 l 775 986 l 775 750 l 356 750 l 356 611 l 714 611 l 714 392 l 356 392 l 356 236 l 788 236 m 439 1157 q 495 1189 471 1157 q 524 1269 519 1221 l 660 1269 q 644 1178 660 1219 q 599 1108 628 1138 q 528 1061 569 1078 q 439 1044 488 1044 q 349 1061 390 1044 q 279 1108 308 1078 q 234 1178 250 1138 q 218 1269 218 1219 l 354 1269 q 379 1190 354 1224 q 439 1157 404 1157 z "},"Ě":{"ha":829,"x_min":85,"x_max":788,"o":"m 788 236 l 788 0 l 85 0 l 85 986 l 775 986 l 775 750 l 356 750 l 356 611 l 714 611 l 714 392 l 356 392 l 356 236 l 788 236 m 321 1269 l 439 1182 l 557 1269 l 690 1211 l 533 1051 l 344 1051 l 188 1211 l 321 1269 z "},"Ê":{"ha":829,"x_min":85,"x_max":788,"o":"m 788 236 l 788 0 l 85 0 l 85 986 l 775 986 l 775 750 l 356 750 l 356 611 l 714 611 l 714 392 l 356 392 l 356 236 l 788 236 m 188 1110 l 344 1269 l 533 1269 l 690 1110 l 557 1051 l 439 1139 l 321 1051 l 188 1110 z "},"Ë":{"ha":829,"x_min":85,"x_max":788,"o":"m 788 236 l 788 0 l 85 0 l 85 986 l 775 986 l 775 750 l 356 750 l 356 611 l 714 611 l 714 392 l 356 392 l 356 236 l 788 236 m 171 1063 l 171 1257 l 388 1257 l 388 1063 l 171 1063 m 490 1063 l 490 1257 l 707 1257 l 707 1063 l 490 1063 z "},"Ė":{"ha":829,"x_min":85,"x_max":788,"o":"m 788 236 l 788 0 l 85 0 l 85 986 l 775 986 l 775 750 l 356 750 l 356 611 l 714 611 l 714 392 l 356 392 l 356 236 l 788 236 m 321 1061 l 321 1269 l 557 1269 l 557 1061 l 321 1061 z "},"È":{"ha":829,"x_min":85,"x_max":788,"o":"m 788 236 l 788 0 l 85 0 l 85 986 l 775 986 l 775 750 l 356 750 l 356 611 l 714 611 l 714 392 l 356 392 l 356 236 l 788 236 m 221 1271 l 456 1271 l 525 1074 l 358 1029 l 221 1271 z "},"Ē":{"ha":829,"x_min":85,"x_max":788,"o":"m 788 236 l 788 0 l 85 0 l 85 986 l 775 986 l 775 750 l 356 750 l 356 611 l 714 611 l 714 392 l 356 392 l 356 236 l 788 236 m 225 1099 l 225 1256 l 656 1256 l 656 1099 l 225 1099 z "},"Ŋ":{"ha":1019,"x_min":85,"x_max":935,"o":"m 356 476 l 356 0 l 85 0 l 85 986 l 293 986 l 664 499 l 664 985 l 935 985 l 935 7 q 913 -116 935 -61 q 853 -210 892 -171 q 762 -269 814 -249 q 649 -290 710 -290 q 538 -271 590 -290 q 442 -215 485 -251 l 550 -36 q 615 -64 575 -64 q 671 -4 671 -64 l 671 61 l 356 476 z "},"Ę":{"ha":829,"x_min":85,"x_max":788,"o":"m 431 -297 q 292 -246 338 -285 q 247 -158 247 -207 q 276 -77 247 -118 q 364 0 306 -36 l 85 0 l 85 986 l 775 986 l 775 750 l 356 750 l 356 611 l 714 611 l 714 392 l 356 392 l 356 236 l 788 236 l 788 0 l 493 0 q 410 -62 439 -31 q 382 -121 382 -93 q 406 -158 382 -144 q 479 -172 429 -172 l 431 -297 l 431 -297 z "},"Ð":{"ha":1001,"x_min":39,"x_max":967,"o":"m 90 0 l 90 399 l 39 399 l 39 593 l 90 593 l 90 986 l 469 986 q 685 947 592 986 q 840 842 778 908 q 935 685 903 775 q 967 494 967 596 q 931 291 967 382 q 831 135 896 200 q 674 35 765 71 q 469 0 582 0 l 90 0 m 692 494 q 676 599 692 551 q 633 679 661 646 q 563 731 604 713 q 469 750 521 750 l 361 750 l 361 593 l 519 593 l 519 399 l 361 399 l 361 236 l 469 236 q 564 256 522 236 q 634 310 606 275 q 677 392 663 344 q 692 494 692 439 z "},"Ẽ":{"ha":829,"x_min":85,"x_max":788,"o":"m 788 236 l 788 0 l 85 0 l 85 986 l 775 986 l 775 750 l 356 750 l 356 611 l 714 611 l 714 392 l 356 392 l 356 236 l 788 236 m 528 1050 q 472 1060 496 1050 q 426 1083 447 1071 q 385 1106 406 1096 q 342 1117 365 1117 q 306 1107 318 1117 q 287 1085 293 1097 q 279 1062 281 1072 q 278 1050 278 1051 l 138 1050 q 148 1105 138 1068 q 182 1178 158 1142 q 242 1242 206 1214 q 331 1269 278 1269 q 389 1258 364 1269 q 435 1234 414 1247 q 475 1210 456 1221 q 518 1199 494 1199 q 554 1209 540 1199 q 576 1233 568 1219 q 585 1257 583 1246 q 588 1269 588 1268 l 726 1269 q 715 1222 726 1257 q 681 1148 704 1186 q 619 1080 657 1110 q 528 1050 582 1050 z "},"€":{"ha":1057,"x_min":47,"x_max":1004,"o":"m 158 631 q 217 768 176 703 q 315 883 257 833 q 450 963 374 933 q 618 992 526 992 q 849 933 750 992 q 994 776 947 874 l 788 629 q 755 689 775 665 q 711 726 735 713 q 661 746 688 740 q 613 751 635 751 q 508 717 549 751 q 443 631 467 682 l 704 631 l 649 492 l 417 492 q 421 432 417 461 l 665 432 l 610 293 l 483 293 q 542 249 508 265 q 615 232 575 232 q 664 238 639 232 q 712 259 689 244 q 753 297 735 274 q 783 353 772 319 l 1004 221 q 941 124 983 167 q 844 51 899 81 q 729 7 790 22 q 610 -8 668 -8 q 469 15 535 -8 q 350 78 404 38 q 253 174 296 119 q 185 293 211 229 l 47 293 l 103 432 l 146 432 q 143 462 143 447 q 142 492 143 476 l 47 492 l 103 631 l 158 631 z "},"F":{"ha":776,"x_min":85,"x_max":761,"o":"m 85 0 l 85 986 l 761 986 l 761 750 l 356 750 l 356 586 l 686 586 l 686 367 l 356 367 l 356 0 l 85 0 z "},"G":{"ha":971,"x_min":32,"x_max":922,"o":"m 699 81 q 483 -7 606 -7 q 310 34 392 -7 q 166 144 228 75 q 68 306 104 214 q 32 501 32 399 q 69 695 32 606 q 170 851 106 785 q 322 955 235 917 q 510 993 410 993 q 629 978 572 993 q 735 935 686 964 q 822 867 783 907 q 885 778 860 828 l 683 624 q 608 717 658 682 q 500 753 557 753 q 423 733 458 753 q 362 679 388 714 q 322 597 336 644 q 307 492 307 549 q 322 386 307 433 q 363 305 336 339 q 426 252 389 271 q 507 233 463 233 q 603 258 557 233 q 690 331 650 283 l 517 331 l 517 525 l 922 525 l 922 0 l 699 0 l 699 81 z "},"Ğ":{"ha":971,"x_min":32,"x_max":922,"o":"m 699 81 q 483 -7 606 -7 q 310 34 392 -7 q 166 144 228 75 q 68 306 104 214 q 32 501 32 399 q 69 695 32 606 q 170 851 106 785 q 322 955 235 917 q 510 993 410 993 q 629 978 572 993 q 735 935 686 964 q 822 867 783 907 q 885 778 860 828 l 683 624 q 608 717 658 682 q 500 753 557 753 q 423 733 458 753 q 362 679 388 714 q 322 597 336 644 q 307 492 307 549 q 322 386 307 433 q 363 305 336 339 q 426 252 389 271 q 507 233 463 233 q 603 258 557 233 q 690 331 650 283 l 517 331 l 517 525 l 922 525 l 922 0 l 699 0 l 699 81 m 508 1157 q 565 1189 540 1157 q 593 1269 589 1221 l 729 1269 q 713 1178 729 1219 q 668 1108 697 1138 q 598 1061 639 1078 q 508 1044 557 1044 q 419 1061 460 1044 q 349 1108 378 1078 q 303 1178 319 1138 q 288 1269 288 1219 l 424 1269 q 449 1190 424 1224 q 508 1157 474 1157 z "},"Ĝ":{"ha":971,"x_min":32,"x_max":922,"o":"m 699 81 q 483 -7 606 -7 q 310 34 392 -7 q 166 144 228 75 q 68 306 104 214 q 32 501 32 399 q 69 695 32 606 q 170 851 106 785 q 322 955 235 917 q 510 993 410 993 q 629 978 572 993 q 735 935 686 964 q 822 867 783 907 q 885 778 860 828 l 683 624 q 608 717 658 682 q 500 753 557 753 q 423 733 458 753 q 362 679 388 714 q 322 597 336 644 q 307 492 307 549 q 322 386 307 433 q 363 305 336 339 q 426 252 389 271 q 507 233 463 233 q 603 258 557 233 q 690 331 650 283 l 517 331 l 517 525 l 922 525 l 922 0 l 699 0 l 699 81 m 257 1110 l 414 1269 l 603 1269 l 760 1110 l 626 1051 l 508 1139 l 390 1051 l 257 1110 z "},"Ģ":{"ha":971,"x_min":32,"x_max":922,"o":"m 699 81 q 483 -7 606 -7 q 310 34 392 -7 q 166 144 228 75 q 68 306 104 214 q 32 501 32 399 q 69 695 32 606 q 170 851 106 785 q 322 955 235 917 q 510 993 410 993 q 629 978 572 993 q 735 935 686 964 q 822 867 783 907 q 885 778 860 828 l 683 624 q 608 717 658 682 q 500 753 557 753 q 423 733 458 753 q 362 679 388 714 q 322 597 336 644 q 307 492 307 549 q 322 386 307 433 q 363 305 336 339 q 426 252 389 271 q 507 233 463 233 q 603 258 557 233 q 690 331 650 283 l 517 331 l 517 525 l 922 525 l 922 0 l 699 0 l 699 81 m 332 -194 q 392 -153 392 -194 l 392 -64 l 606 -64 l 606 -164 q 585 -236 606 -210 q 527 -276 564 -262 q 440 -292 490 -289 q 332 -296 390 -296 l 332 -194 z "},"":{"ha":335,"x_min":33,"x_max":307,"o":"m 33 -194 q 93 -153 93 -194 l 93 -64 l 307 -64 l 307 -164 q 286 -236 307 -210 q 228 -276 265 -262 q 142 -292 192 -289 q 33 -296 92 -296 l 33 -194 z "},"Ġ":{"ha":971,"x_min":32,"x_max":922,"o":"m 699 81 q 483 -7 606 -7 q 310 34 392 -7 q 166 144 228 75 q 68 306 104 214 q 32 501 32 399 q 69 695 32 606 q 170 851 106 785 q 322 955 235 917 q 510 993 410 993 q 629 978 572 993 q 735 935 686 964 q 822 867 783 907 q 885 778 860 828 l 683 624 q 608 717 658 682 q 500 753 557 753 q 423 733 458 753 q 362 679 388 714 q 322 597 336 644 q 307 492 307 549 q 322 386 307 433 q 363 305 336 339 q 426 252 389 271 q 507 233 463 233 q 603 258 557 233 q 690 331 650 283 l 517 331 l 517 525 l 922 525 l 922 0 l 699 0 l 699 81 m 390 1061 l 390 1269 l 626 1269 l 626 1061 l 390 1061 z "},"H":{"ha":1042,"x_min":85,"x_max":957,"o":"m 957 986 l 957 0 l 686 0 l 686 386 l 356 386 l 356 0 l 85 0 l 85 986 l 356 986 l 356 622 l 686 622 l 686 986 l 957 986 z "},"Ħ":{"ha":1050,"x_min":19,"x_max":1031,"o":"m 961 986 l 961 869 l 1031 869 l 1031 747 l 961 747 l 961 0 l 690 0 l 690 386 l 360 386 l 360 0 l 89 0 l 89 747 l 19 747 l 19 869 l 89 869 l 89 986 l 360 986 l 360 869 l 690 869 l 690 986 l 961 986 m 690 622 l 690 747 l 360 747 l 360 622 l 690 622 z "},"Ĥ":{"ha":1042,"x_min":85,"x_max":957,"o":"m 957 986 l 957 0 l 686 0 l 686 386 l 356 386 l 356 0 l 85 0 l 85 986 l 356 986 l 356 622 l 686 622 l 686 986 l 957 986 m 274 1108 l 431 1268 l 619 1268 l 776 1108 l 643 1050 l 525 1138 l 407 1050 l 274 1108 z "},"I":{"ha":440,"x_min":85,"x_max":356,"o":"m 85 0 l 85 986 l 356 986 l 356 0 l 85 0 z "},"Ĳ":{"ha":1138,"x_min":85,"x_max":1064,"o":"m 85 0 l 85 986 l 356 986 l 356 0 l 85 0 m 504 267 q 522 257 508 264 q 557 243 536 250 q 605 231 578 236 q 661 225 632 225 q 731 239 704 225 q 771 284 757 253 q 789 365 785 315 q 793 485 793 414 l 793 986 l 1064 986 l 1064 485 q 1051 280 1064 372 q 997 122 1039 188 q 876 21 956 57 q 661 -15 796 -15 q 447 46 536 -15 l 504 267 z "},"J":{"ha":697,"x_min":7,"x_max":624,"o":"m 64 267 q 82 257 68 264 q 117 243 96 250 q 165 231 138 236 q 221 225 192 225 q 290 239 264 225 q 331 284 317 253 q 349 365 344 315 q 353 485 353 414 l 353 986 l 624 986 l 624 485 q 611 280 624 372 q 557 122 599 188 q 435 21 515 57 q 221 -15 356 -15 q 7 46 96 -15 l 64 267 z "},"Í":{"ha":440,"x_min":85,"x_max":438,"o":"m 85 0 l 85 986 l 356 986 l 356 0 l 85 0 m 300 1028 l 133 1072 l 203 1269 l 438 1269 l 300 1028 z "},"Ĭ":{"ha":440,"x_min":-1,"x_max":440,"o":"m 85 0 l 85 986 l 356 986 l 356 0 l 85 0 m 219 1157 q 276 1189 251 1157 q 304 1269 300 1221 l 440 1269 q 424 1178 440 1219 q 379 1108 408 1138 q 309 1061 350 1078 q 219 1044 268 1044 q 130 1061 171 1044 q 60 1108 89 1078 q 15 1178 31 1138 q -1 1269 -1 1219 l 135 1269 q 160 1190 135 1224 q 219 1157 185 1157 z "},"Î":{"ha":440,"x_min":-32,"x_max":471,"o":"m 85 0 l 85 986 l 356 986 l 356 0 l 85 0 m -32 1110 l 125 1269 l 314 1269 l 471 1110 l 338 1051 l 219 1139 l 101 1051 l -32 1110 z "},"Ï":{"ha":440,"x_min":-49,"x_max":488,"o":"m 85 0 l 85 986 l 356 986 l 356 0 l 85 0 m -49 1063 l -49 1257 l 168 1257 l 168 1063 l -49 1063 m 271 1063 l 271 1257 l 488 1257 l 488 1063 l 271 1063 z "},"İ":{"ha":440,"x_min":85,"x_max":356,"o":"m 85 0 l 85 986 l 356 986 l 356 0 l 85 0 m 101 1061 l 101 1269 l 338 1269 l 338 1061 l 101 1061 z "},"Ì":{"ha":440,"x_min":1,"x_max":356,"o":"m 85 0 l 85 986 l 356 986 l 356 0 l 85 0 m 1 1271 l 236 1271 l 306 1074 l 139 1029 l 1 1271 z "},"Ī":{"ha":440,"x_min":6,"x_max":436,"o":"m 85 0 l 85 986 l 356 986 l 356 0 l 85 0 m 6 1099 l 6 1256 l 436 1256 l 436 1099 l 6 1099 z "},"Į":{"ha":440,"x_min":85,"x_max":356,"o":"m 290 -299 q 152 -247 197 -286 q 107 -160 107 -208 q 137 -78 107 -119 q 226 0 167 -36 l 85 0 l 85 986 l 356 986 l 356 0 q 271 -63 300 -32 q 242 -122 242 -94 q 265 -160 242 -146 q 339 -174 289 -174 l 290 -299 l 290 -299 z "},"Ĩ":{"ha":440,"x_min":-82,"x_max":507,"o":"m 85 0 l 85 986 l 356 986 l 356 0 l 85 0 m 308 1050 q 252 1060 276 1050 q 207 1083 228 1071 q 166 1106 186 1096 q 122 1117 146 1117 q 86 1107 99 1117 q 67 1085 74 1097 q 60 1062 61 1072 q 58 1050 58 1051 l -82 1050 q -72 1105 -82 1068 q -37 1178 -61 1142 q 22 1242 -14 1214 q 111 1269 58 1269 q 169 1258 144 1269 q 215 1234 194 1247 q 256 1210 236 1221 q 299 1199 275 1199 q 335 1209 321 1199 q 356 1233 349 1219 q 366 1257 364 1246 q 368 1269 368 1268 l 507 1269 q 496 1222 507 1257 q 461 1148 485 1186 q 400 1080 438 1110 q 308 1050 363 1050 z "},"Ĵ":{"ha":697,"x_min":7,"x_max":743,"o":"m 64 267 q 82 257 68 264 q 117 243 96 250 q 165 231 138 236 q 221 225 192 225 q 290 239 264 225 q 331 284 317 253 q 349 365 344 315 q 353 485 353 414 l 353 986 l 624 986 l 624 485 q 611 280 624 372 q 557 122 599 188 q 435 21 515 57 q 221 -15 356 -15 q 7 46 96 -15 l 64 267 m 240 1110 l 397 1269 l 586 1269 l 743 1110 l 610 1051 l 492 1139 l 374 1051 l 240 1110 z "},"K":{"ha":957,"x_min":85,"x_max":986,"o":"m 85 0 l 85 986 l 356 986 l 356 583 l 683 986 l 961 986 l 603 544 l 986 0 l 703 0 l 443 393 l 356 293 l 356 0 l 85 0 z "},"Ķ":{"ha":957,"x_min":85,"x_max":986,"o":"m 85 0 l 85 986 l 356 986 l 356 583 l 683 986 l 961 986 l 603 544 l 986 0 l 703 0 l 443 393 l 356 293 l 356 0 l 85 0 m 344 -194 q 404 -153 404 -194 l 404 -64 l 618 -64 l 618 -164 q 597 -236 618 -210 q 540 -276 576 -262 q 453 -292 503 -289 q 344 -296 403 -296 l 344 -194 z "},"L":{"ha":817,"x_min":85,"x_max":803,"o":"m 85 0 l 85 986 l 356 986 l 356 236 l 803 236 l 803 0 l 85 0 z "},"Ĺ":{"ha":817,"x_min":85,"x_max":803,"o":"m 85 0 l 85 986 l 356 986 l 356 236 l 803 236 l 803 0 l 85 0 m 596 1028 l 429 1072 l 499 1269 l 733 1269 l 596 1028 z "},"Ľ":{"ha":818,"x_min":85,"x_max":803,"o":"m 85 0 l 85 986 l 356 986 l 356 236 l 803 236 l 803 0 l 85 0 m 610 771 l 443 815 l 513 1013 l 747 1013 l 610 771 z "},"Ļ":{"ha":817,"x_min":85,"x_max":803,"o":"m 85 0 l 85 986 l 356 986 l 356 236 l 803 236 l 803 0 l 85 0 m 299 -194 q 358 -153 358 -194 l 358 -64 l 572 -64 l 572 -164 q 551 -236 572 -210 q 494 -276 531 -262 q 407 -292 457 -289 q 299 -296 357 -296 l 299 -194 z "},"Ŀ":{"ha":818,"x_min":85,"x_max":803,"o":"m 85 0 l 85 986 l 356 986 l 356 236 l 803 236 l 803 0 l 85 0 m 506 440 l 506 696 l 719 696 l 719 440 l 506 440 z "},"·":{"ha":353,"x_min":69,"x_max":283,"o":"m 69 331 l 69 586 l 283 586 l 283 331 l 69 331 z "},"Ł":{"ha":833,"x_min":-24,"x_max":819,"o":"m 101 0 l 101 382 l 36 350 l -24 490 l 101 551 l 101 986 l 372 986 l 372 683 l 471 732 l 531 592 l 372 514 l 372 236 l 819 236 l 819 0 l 101 0 z "}}}
